<?xml version="1.0" standalone="no"?>
<!DOCTYPE svg PUBLIC "-//W3C//DTD SVG 20010904//EN"
 "http://www.w3.org/TR/2001/REC-SVG-20010904/DTD/svg10.dtd">
<svg version="1.0" xmlns="http://www.w3.org/2000/svg"
 width="736.000000pt" height="736.000000pt" viewBox="0 0 736.000000 736.000000"
 preserveAspectRatio="xMidYMid meet">

<g transform="translate(0.000000,736.000000) scale(0.100000,-0.100000)"
fill="#000000" stroke="none">
<path d="M0 3680 l0 -3680 1076 0 1076 0 -6 113 c-4 61 -9 153 -12 202 -5 96
0 128 55 315 42 143 48 165 67 240 15 64 166 526 184 565 5 11 19 45 30 75 11
30 25 64 30 75 4 11 11 31 13 45 3 14 19 63 35 110 17 47 38 121 47 165 10 44
22 86 28 93 7 8 7 20 0 35 -21 44 -43 104 -74 200 -25 74 -36 97 -50 97 -18 0
-59 -57 -59 -82 0 -7 -9 -31 -20 -53 -11 -22 -20 -46 -20 -55 0 -8 -14 -37
-30 -65 -16 -27 -30 -60 -30 -71 0 -12 -7 -27 -15 -34 -13 -11 -15 -1 -17 81
-1 52 0 135 1 185 3 89 -14 164 -37 164 -5 0 -13 10 -17 23 -7 19 -9 17 -12
-16 -4 -39 2 -73 31 -180 18 -66 19 -77 8 -77 -5 0 -17 18 -27 40 -10 22 -24
45 -32 52 -8 6 -28 41 -44 77 -26 57 -32 63 -41 48 -5 -10 -7 -35 -4 -55 4
-21 11 -66 16 -102 4 -36 12 -86 15 -112 7 -46 -11 -138 -26 -138 -4 0 -8 40
-8 89 -1 64 -6 104 -20 138 -34 85 -163 343 -172 343 -5 0 -9 -17 -9 -38 0
-21 -4 -42 -9 -47 -10 -11 -30 -113 -61 -320 -22 -152 -30 -172 -30 -78 0 56
-7 75 -79 223 -44 89 -77 169 -74 176 3 8 1 14 -5 14 -6 0 -18 20 -28 45 -9
25 -21 48 -25 51 -4 2 -22 -39 -39 -93 -26 -85 -30 -112 -31 -218 -1 -172 -20
-117 -30 85 -5 85 -11 176 -15 203 -4 32 -2 52 6 63 10 12 10 22 0 53 -9 30
-10 43 0 60 6 13 9 25 6 28 -2 3 -21 -30 -41 -73 -20 -44 -41 -88 -47 -99 -6
-11 -35 -67 -64 -126 -55 -111 -58 -126 -34 -214 17 -62 29 -118 30 -139 0
-19 0 -19 -21 0 -12 10 -36 50 -53 87 -32 68 -33 68 -47 45 -8 -13 -20 -35
-27 -50 -6 -16 -16 -28 -22 -28 -15 0 -12 51 5 80 17 30 20 146 4 187 -14 38
-78 275 -90 338 -6 28 -14 88 -20 135 -5 47 -14 104 -19 128 -6 23 -10 62 -10
87 0 25 -4 45 -9 45 -4 0 -16 -21 -26 -47 -10 -27 -36 -85 -57 -130 -23 -47
-43 -106 -48 -140 -32 -236 -51 -262 -46 -63 6 191 23 560 29 618 3 23 1 42
-4 42 -5 0 -9 -7 -9 -15 0 -8 -18 -34 -40 -57 -22 -24 -71 -76 -108 -117 -63
-69 -172 -161 -191 -161 -5 0 -14 -6 -20 -14 -15 -18 -152 -86 -174 -86 -19 0
-23 15 -6 25 6 4 25 28 42 54 18 27 59 83 92 127 36 47 94 149 146 255 99 200
113 232 165 379 36 101 37 112 45 295 5 105 13 206 19 226 5 20 10 48 10 62 0
14 5 29 10 32 18 11 12 38 -7 32 -102 -34 -237 -66 -273 -67 -26 0 -50 -4 -55
-9 -6 -5 -37 -11 -70 -14 -74 -6 -103 -13 -121 -27 -7 -7 -18 -9 -24 -5 -15
10 -12 35 5 35 8 0 23 9 32 20 10 11 27 20 39 20 12 0 38 11 58 25 21 14 59
36 84 50 80 41 186 142 267 255 20 28 69 85 152 179 23 26 55 76 71 112 16 35
52 106 80 156 28 51 47 95 43 97 -3 2 -42 -5 -86 -15 -67 -17 -245 -42 -280
-39 -93 6 -150 30 -72 30 27 0 61 7 77 15 15 8 62 26 103 39 148 48 329 157
433 260 67 68 158 146 169 146 4 0 44 33 89 73 70 63 184 147 199 147 8 0 94
59 182 125 109 82 204 140 305 187 47 22 110 53 141 69 31 16 71 29 88 29 18
0 42 5 53 11 14 8 23 8 31 0 6 -6 46 -11 88 -11 48 0 101 -7 140 -19 58 -19
66 -19 130 -5 63 15 73 14 166 -5 210 -44 248 -53 258 -62 5 -5 19 -9 31 -9
21 0 138 -38 254 -82 30 -12 69 -32 87 -45 17 -12 35 -23 39 -23 23 0 181 -71
253 -114 70 -41 206 -153 246 -201 6 -6 24 -19 42 -29 18 -9 30 -22 27 -29 -2
-7 13 -30 35 -51 22 -22 38 -43 35 -47 -2 -4 5 -13 17 -19 17 -9 18 -14 9 -23
-10 -9 -14 -9 -18 2 -4 13 -53 61 -126 126 -38 34 -117 78 -124 70 -3 -3 2
-11 11 -18 9 -6 32 -43 52 -82 20 -38 42 -76 50 -85 7 -8 17 -28 20 -45 4 -16
18 -50 31 -75 21 -43 28 -68 41 -152 5 -35 7 -37 54 -43 27 -4 134 -5 238 -3
177 3 190 2 211 -17 37 -32 51 -81 57 -194 7 -130 19 -164 70 -189 69 -36 93
-83 93 -187 0 -47 4 -66 18 -78 10 -10 29 -41 42 -70 58 -131 87 -182 112
-194 36 -18 98 -89 98 -112 0 -11 5 -23 10 -26 32 -20 -12 -149 -80 -236 -64
-82 -162 -194 -191 -217 -16 -13 -29 -30 -29 -38 0 -8 -4 -14 -9 -14 -5 0 -28
-16 -51 -35 -23 -19 -48 -35 -55 -35 -7 0 -19 -7 -26 -16 -7 -9 -20 -19 -29
-23 -8 -3 -39 -22 -68 -41 l-54 -34 6 -71 c7 -96 20 -175 46 -275 11 -47 25
-107 30 -135 4 -27 12 -61 16 -75 7 -23 6 -24 -9 -11 -9 7 -17 19 -17 25 0 7
-14 34 -32 62 -17 27 -44 75 -60 107 -16 31 -33 57 -38 57 -13 0 -13 -16 2
-39 9 -15 9 -25 0 -46 -14 -30 -16 -127 -3 -140 5 -6 11 -71 14 -145 5 -131
20 -237 38 -272 5 -10 9 -37 9 -61 0 -24 5 -48 12 -55 7 -7 8 -12 2 -12 -20 0
-42 34 -99 152 -31 65 -60 120 -64 123 -5 2 -26 39 -47 82 -21 42 -40 71 -42
64 -2 -6 1 -24 6 -39 6 -15 13 -97 17 -182 3 -85 11 -173 16 -195 6 -22 15
-58 21 -80 5 -22 21 -72 34 -112 24 -71 29 -103 18 -103 -8 0 -64 63 -64 73 0
4 -8 15 -18 25 -32 33 -102 140 -102 156 0 9 -6 16 -14 16 -8 0 -20 16 -27 35
-17 45 -27 44 -34 -2 -3 -21 -10 -52 -15 -69 -6 -17 -10 -40 -10 -52 0 -11 -4
-23 -9 -26 -4 -3 -11 -22 -14 -43 -8 -54 -13 -69 -44 -148 -26 -68 -27 -76
-28 -270 l0 -200 48 -66 c26 -37 47 -70 47 -74 0 -12 54 -78 124 -149 37 -39
79 -93 93 -121 35 -69 43 -78 59 -65 9 8 15 7 21 -3 4 -8 27 -24 49 -35 23
-12 79 -59 124 -104 76 -77 88 -95 155 -233 40 -82 80 -170 90 -195 15 -40 49
-119 133 -315 14 -33 49 -111 78 -172 l53 -113 996 0 995 0 0 3680 0 3680
-3680 0 -3680 0 0 -3680z m4959 3185 c24 -19 47 -35 50 -35 3 0 11 -9 16 -19
6 -10 31 -50 56 -88 46 -69 112 -239 129 -333 15 -85 53 -163 91 -187 58 -37
188 -147 188 -160 1 -9 19 -13 56 -13 33 0 55 -4 55 -11 0 -7 17 -9 53 -4 28
3 91 8 140 11 48 3 87 10 87 15 0 5 9 4 19 -3 15 -9 26 -9 44 -1 14 7 29 8 38
2 8 -5 31 -8 53 -7 30 1 43 -4 58 -23 35 -44 58 -84 58 -101 0 -29 36 -22 136
27 98 48 120 54 110 30 -4 -12 0 -14 19 -9 19 5 25 2 25 -10 0 -70 -100 -126
-245 -137 -88 -6 -165 -29 -165 -49 0 -6 10 -10 23 -10 12 0 49 -12 82 -26 33
-13 88 -27 123 -31 65 -6 73 -14 51 -55 -9 -16 -7 -24 11 -43 20 -21 21 -26 9
-62 -7 -21 -17 -42 -21 -47 -15 -18 -8 -26 16 -20 13 3 27 1 30 -5 10 -15 129
-14 144 1 9 9 15 9 24 0 7 -7 19 -12 27 -12 23 0 61 -41 61 -66 0 -32 -29 -46
-71 -34 -19 6 -51 10 -71 10 -20 0 -39 4 -42 9 -3 4 -25 11 -48 14 -24 3 -72
15 -107 27 -71 22 -158 26 -211 8 -22 -7 -137 -12 -315 -13 -164 -2 -306 -7
-343 -14 -46 -9 -67 -9 -77 -1 -10 8 -14 7 -17 -2 -4 -10 -10 -10 -32 0 -31
14 -66 16 -66 4 0 -5 11 -19 25 -32 35 -33 32 -50 -10 -50 -36 0 -138 40 -149
59 -4 6 -13 11 -20 11 -14 0 -22 -32 -32 -122 -9 -74 -24 -57 -24 26 0 75 -12
126 -28 126 -5 0 -15 -20 -22 -45 -7 -25 -17 -48 -21 -51 -11 -7 -11 0 2 55
10 44 10 44 -36 87 -43 42 -65 54 -65 35 0 -4 -22 3 -50 16 -46 22 -50 27 -50
58 0 24 5 35 15 35 8 0 15 4 15 10 0 10 -18 24 -95 74 -27 17 -74 49 -102 69
-29 20 -57 37 -62 37 -5 0 -14 6 -20 14 -7 8 -41 28 -76 44 -57 27 -165 114
-165 134 0 18 28 6 60 -27 19 -19 64 -50 100 -69 36 -19 109 -64 163 -100 54
-36 101 -66 104 -66 4 0 -5 12 -19 28 -14 15 -34 41 -44 57 -10 17 -43 57 -74
90 -59 62 -117 151 -106 162 7 7 46 -26 46 -38 0 -4 28 -44 63 -89 34 -44 72
-95 85 -113 13 -18 32 -41 43 -53 10 -11 19 -25 19 -31 0 -8 85 -93 94 -93 5
0 0 35 -6 46 -4 5 -10 34 -14 62 -4 29 -11 55 -15 58 -5 3 -9 21 -9 40 0 19
-11 57 -25 84 -13 27 -54 140 -91 252 -69 213 -84 254 -118 328 -21 47 -35
203 -22 254 7 28 43 40 80 26 32 -12 106 -78 106 -95 0 -7 7 -19 16 -26 9 -8
25 -34 36 -59 30 -69 61 -78 53 -15 -3 19 0 37 5 40 6 3 10 15 10 27 0 11 9
48 20 82 11 33 22 77 25 96 4 30 11 38 38 47 48 16 49 15 96 -22z m-96 -1410
c1 -6 -7 -14 -19 -19 -11 -5 -25 -18 -30 -30 -5 -11 -15 -21 -21 -24 -24 -7
-13 22 19 55 31 32 48 38 51 18z m51 -37 c-34 -57 -56 -89 -60 -85 -7 6 47 97
57 97 6 0 7 -6 3 -12z m-50 -3047 c-7 -7 -54 41 -48 50 3 5 16 -3 29 -19 13
-15 21 -29 19 -31z"/>
<path d="M5725 5824 c32 -26 72 -41 82 -30 8 8 -29 36 -40 29 -4 -2 -19 2 -32
11 -37 24 -44 18 -10 -10z"/>
<path d="M5875 5800 c-3 -5 1 -10 10 -10 9 0 13 5 10 10 -3 6 -8 10 -10 10 -2
0 -7 -4 -10 -10z"/>
<path d="M6567 5403 c-10 -9 -9 -23 1 -23 5 0 9 7 9 15 0 17 -1 18 -10 8z"/>
<path d="M3338 5728 c68 -70 161 -191 214 -278 69 -115 98 -140 98 -87 0 40
80 181 111 198 27 14 24 27 -8 41 -16 6 -59 26 -98 43 -38 17 -104 42 -145 54
-41 13 -84 27 -95 31 -11 5 -38 12 -60 15 l-40 7 23 -24z"/>
<path d="M3801 5519 c-19 -18 -53 -71 -78 -123 -25 -50 -51 -94 -58 -98 -10
-6 -5 -22 22 -70 19 -35 45 -77 57 -95 l24 -32 13 47 c15 53 54 116 94 150 20
18 24 27 16 35 -6 6 -11 30 -11 54 0 32 -4 43 -15 43 -8 0 -15 5 -15 10 0 6
18 10 40 10 28 0 40 -4 40 -14 0 -8 -5 -18 -11 -21 -6 -4 -8 -20 -4 -38 14
-67 13 -67 64 -67 26 0 52 5 59 12 19 19 27 0 9 -20 -10 -10 -17 -24 -17 -30
0 -6 -10 -17 -22 -23 -13 -6 -25 -13 -27 -15 -2 -2 19 -24 48 -50 28 -25 51
-50 51 -56 0 -5 9 -21 20 -35 28 -36 25 -53 -9 -53 -29 0 -61 33 -61 63 0 23
-24 39 -38 25 -9 -9 -18 -6 -36 11 l-24 23 -42 -79 c-23 -43 -42 -91 -43 -107
-2 -28 1 -30 56 -45 31 -8 57 -17 57 -20 0 -8 -51 -31 -67 -31 -20 0 -16 -15
12 -48 14 -17 25 -37 25 -45 0 -8 7 -20 15 -27 8 -7 15 -23 15 -36 0 -12 5
-26 10 -29 13 -8 13 -25 0 -25 -12 0 -48 56 -57 89 -3 13 -12 31 -20 40 -7 9
-26 31 -41 50 l-28 34 -53 -14 c-45 -11 -54 -11 -62 1 -5 8 -7 20 -4 27 2 7 0
15 -6 19 -6 4 -6 11 1 19 7 8 9 18 6 24 -3 5 0 11 6 14 15 5 -17 47 -36 47 -5
0 -22 12 -37 26 -35 33 -49 24 -49 -32 0 -24 -4 -44 -10 -44 -12 0 -13 15 -10
87 2 50 1 52 -33 68 -20 9 -38 23 -41 31 -3 8 -12 14 -21 14 -17 0 -20 -16 -6
-25 15 -9 110 -213 137 -295 22 -65 68 -171 96 -220 5 -8 11 -23 15 -33 7 -23
66 -138 99 -197 15 -25 44 -76 66 -115 23 -38 56 -97 75 -129 18 -32 69 -97
113 -143 44 -46 80 -89 80 -94 0 -26 -37 2 -150 116 -97 97 -130 125 -148 123
-23 -3 -32 -23 -9 -23 7 0 14 -19 17 -50 3 -27 10 -57 15 -65 9 -14 20 -72 31
-155 3 -22 8 -47 11 -55 14 -34 31 -105 26 -110 -2 -3 -9 3 -14 13 -6 9 -14
15 -19 12 -5 -3 -12 5 -15 17 -4 13 -13 37 -21 53 -7 17 -20 55 -28 85 -12 46
-15 50 -15 23 -1 -18 10 -58 24 -89 14 -31 25 -63 25 -70 0 -7 6 -28 14 -46
64 -150 105 -239 126 -279 52 -97 144 -255 166 -286 16 -20 20 -34 13 -38 -6
-4 6 -22 30 -44 23 -21 41 -43 41 -49 0 -7 7 -12 16 -12 8 0 28 -12 42 -27 21
-22 27 -37 26 -68 -1 -22 -4 -48 -9 -58 -5 -13 -4 -16 9 -11 13 5 16 -1 16
-27 0 -19 5 -41 10 -49 18 -28 30 10 30 100 0 47 7 112 16 145 8 33 23 96 33
140 17 77 50 157 70 170 13 8 71 94 71 105 0 5 10 15 23 21 12 7 42 29 67 50
25 20 64 46 87 58 23 11 45 26 49 32 4 6 57 44 119 85 103 67 233 184 258 231
6 10 20 29 33 43 41 45 93 124 119 178 l24 53 -19 52 c-14 37 -39 71 -84 116
-59 58 -82 95 -117 190 -7 18 -25 48 -41 65 -25 28 -28 37 -28 106 -1 91 -11
112 -81 160 -78 52 -89 81 -89 220 0 114 0 116 -31 153 l-30 37 -216 0 c-225
0 -302 11 -348 49 -42 34 -83 60 -88 54 -4 -3 9 -35 28 -72 19 -36 47 -106 62
-156 14 -49 30 -94 35 -99 13 -16 9 -46 -6 -46 -14 0 -26 21 -26 47 0 22 -122
199 -181 263 -28 30 -58 65 -67 78 -10 15 -21 21 -34 17 -10 -4 -17 -2 -16 4
4 14 -98 118 -122 124 -11 3 -24 -1 -31 -9 -20 -24 -30 -15 -13 11 22 34 6 31
-35 -6z m69 -29 c0 -5 -5 -10 -11 -10 -5 0 -7 5 -4 10 3 6 8 10 11 10 2 0 4
-4 4 -10z m110 -70 c0 -5 -2 -10 -4 -10 -3 0 -8 5 -11 10 -3 6 -1 10 4 10 6 0
11 -4 11 -10z m13 -70 c18 0 19 -2 7 -10 -24 -16 -60 -12 -60 6 0 11 5 14 16
10 9 -3 25 -6 37 -6z m857 -114 c0 -3 -4 -8 -10 -11 -5 -3 -10 -1 -10 4 0 6 5
11 10 11 6 0 10 -2 10 -4z m-705 -266 c-16 -17 -45 -35 -64 -40 -47 -13 -51
-13 -51 5 0 8 7 15 15 15 8 0 31 11 51 25 20 14 46 25 57 25 19 0 18 -2 -8
-30z m945 -370 c0 -5 -11 -26 -25 -46 -29 -42 -35 -20 -8 27 17 29 33 38 33
19z m-893 -1422 c-3 -7 -5 -2 -5 12 0 14 2 19 5 13 2 -7 2 -19 0 -25z m193
-273 c0 -8 -4 -15 -10 -15 -5 0 -10 7 -10 15 0 8 5 15 10 15 6 0 10 -7 10 -15z"/>
<path d="M3886 5264 c-14 -15 -27 -29 -27 -33 -3 -13 -6 -81 -3 -79 11 12 70
138 64 138 -4 0 -19 -12 -34 -26z"/>
<path d="M3784 4257 c3 -10 6 -28 6 -40 0 -16 9 -25 35 -33 20 -6 37 -8 40 -4
2 4 -17 27 -42 51 -25 24 -43 36 -39 26z"/>
<path d="M3810 4019 c0 -33 4 -58 8 -55 13 8 15 116 3 116 -7 0 -11 -25 -11
-61z"/>
<path d="M2674 3920 c-11 -4 -37 -27 -57 -51 l-37 -43 0 -101 c0 -56 3 -105 8
-109 4 -4 7 -15 7 -24 2 -58 27 -101 83 -143 31 -24 59 -48 61 -52 1 -4 19
-19 40 -32 20 -14 63 -43 95 -65 52 -35 116 -54 116 -34 0 13 -42 64 -53 64
-13 0 -142 51 -177 70 -12 6 -20 19 -18 28 1 9 -9 36 -22 59 -18 31 -30 41
-42 37 -18 -5 -25 10 -9 20 11 7 20 56 14 73 -3 8 -13 11 -24 8 -11 -4 -19 -3
-20 2 0 4 -2 22 -5 40 -6 53 52 143 93 143 20 0 23 5 23 38 0 27 -7 45 -23 60
-26 24 -24 24 -53 12z"/>
<path d="M2746 3738 c-5 -19 -8 -21 -16 -8 -8 12 -10 11 -10 -7 0 -12 -8 -35
-17 -52 -13 -21 -15 -33 -7 -41 8 -8 20 7 42 50 18 33 32 65 32 70 0 19 -18
10 -24 -12z"/>
<path d="M2780 3696 c0 -7 -16 -40 -35 -72 -19 -32 -35 -63 -35 -68 1 -20 56
-91 80 -103 13 -7 27 -19 30 -28 3 -9 29 -27 58 -40 47 -22 52 -22 52 -6 0 19
-49 71 -68 71 -7 0 -12 11 -12 24 0 14 -4 28 -10 31 -6 4 -5 13 2 25 10 16 8
29 -11 72 -13 29 -26 65 -28 81 -5 28 -23 38 -23 13z m10 -130 c0 -3 -4 -8
-10 -11 -5 -3 -10 -1 -10 4 0 6 5 11 10 11 6 0 10 -2 10 -4z"/>
<path d="M3890 3388 c0 -10 31 -68 39 -73 5 -2 6 -16 4 -29 -5 -22 15 -108 37
-161 5 -11 25 -73 46 -137 21 -65 41 -118 45 -118 4 0 3 15 -2 32 -13 46 -11
47 16 13 l24 -29 -21 -23 c-22 -23 -22 -24 -4 -55 10 -17 22 -45 27 -62 15
-57 60 -181 84 -226 12 -25 37 -75 54 -112 18 -38 43 -80 55 -95 13 -16 26
-37 28 -48 4 -17 7 -16 18 10 14 33 18 56 26 155 3 36 10 69 15 75 12 12 12
125 -1 125 -5 0 -10 -11 -10 -25 0 -18 -7 -26 -26 -31 -16 -4 -22 -10 -16 -16
13 -13 -7 -88 -24 -88 -7 0 -18 9 -24 20 -6 11 -17 20 -25 20 -20 0 -35 32
-35 75 0 31 -3 36 -17 31 -9 -4 -20 -1 -25 6 -12 19 -10 28 7 28 22 0 18 28
-5 40 -11 6 -18 15 -15 21 11 17 -16 81 -31 75 -9 -3 -14 2 -14 14 0 11 -6 20
-14 20 -22 0 -28 17 -14 39 11 19 14 19 30 4 14 -13 20 -13 33 -3 20 16 19 49
-1 57 -8 3 -23 -2 -32 -10 -14 -15 -17 -13 -28 20 -15 44 -3 59 30 38 18 -12
24 -11 40 1 48 35 76 7 69 -68 -3 -30 0 -48 6 -48 7 0 11 25 11 64 0 62 -1 64
-51 120 -44 47 -54 54 -67 44 -13 -11 -14 -10 -8 9 8 24 -21 64 -131 183 -29
31 -53 61 -53 67 0 5 -11 20 -25 33 -14 13 -25 21 -25 18z m160 -214 c0 -7 -5
-14 -12 -16 -8 -3 -7 -14 5 -38 9 -18 17 -39 17 -47 0 -7 5 -13 10 -13 6 0 10
8 10 17 0 31 23 -3 25 -37 1 -23 -5 -36 -26 -50 -15 -11 -30 -20 -33 -20 -6 0
-36 67 -36 82 0 5 5 6 10 3 6 -3 10 -14 10 -24 0 -10 7 -24 15 -31 13 -10 15
-9 15 9 0 12 -7 32 -15 44 -8 13 -16 48 -17 78 -1 38 -7 61 -21 77 -23 25 -39
29 -31 7 4 -8 2 -15 -4 -15 -5 0 -12 15 -15 33 -3 17 -8 41 -12 52 -4 11 19
-7 49 -39 31 -33 56 -65 56 -72z m-47 0 c9 -9 -4 -35 -14 -28 -5 3 -9 12 -9
20 0 14 12 19 23 8z m4 -96 c-3 -7 -5 -2 -5 12 0 14 2 19 5 13 2 -7 2 -19 0
-25z m137 -53 c26 -20 37 -19 29 3 -6 15 -5 16 11 2 11 -8 14 -16 7 -18 -6 -2
-9 -8 -5 -13 8 -13 -10 -11 -24 3 -9 9 -15 9 -24 0 -16 -16 -33 -15 -19 1 8
10 7 17 -1 25 -17 17 3 14 26 -3z m64 -461 c-10 -10 -28 6 -28 24 0 15 1 15
17 -1 9 -9 14 -19 11 -23z"/>
<path d="M3550 2980 c0 -5 5 -10 10 -10 6 0 10 5 10 10 0 6 -4 10 -10 10 -5 0
-10 -4 -10 -10z"/>
<path d="M3260 2950 c0 -5 5 -10 10 -10 6 0 10 5 10 10 0 6 -4 10 -10 10 -5 0
-10 -4 -10 -10z"/>
<path d="M3570 2934 c0 -8 5 -12 10 -9 6 3 10 10 10 16 0 5 -4 9 -10 9 -5 0
-10 -7 -10 -16z"/>
<path d="M3608 2905 c-7 -8 14 -55 25 -55 9 0 -1 40 -12 53 -4 4 -10 5 -13 2z"/>
<path d="M3210 2860 c0 -5 5 -10 10 -10 6 0 10 5 10 10 0 6 -4 10 -10 10 -5 0
-10 -4 -10 -10z"/>
<path d="M3641 2825 c-1 -24 15 -52 24 -43 4 3 0 19 -9 35 -13 23 -15 24 -15
8z"/>
<path d="M3225 2820 c-3 -6 1 -13 10 -16 19 -8 30 0 20 15 -8 14 -22 14 -30 1z"/>
<path d="M3225 2761 c3 -10 7 -54 9 -97 3 -93 26 -224 39 -224 6 0 7 16 3 38
-4 20 -11 66 -16 102 -4 36 -11 73 -15 83 -4 9 -2 30 5 46 9 22 9 35 0 50 -13
26 -33 28 -25 2z"/>
<path d="M3352 2750 c0 -14 2 -19 5 -12 2 6 2 18 0 25 -3 6 -5 1 -5 -13z"/>
<path d="M3690 2760 c0 -5 5 -10 11 -10 5 0 7 5 4 10 -3 6 -8 10 -11 10 -2 0
-4 -4 -4 -10z"/>
<path d="M3715 2705 c7 -32 21 -52 30 -43 4 3 -4 21 -15 39 l-22 34 7 -30z"/>
<path d="M4375 2707 c-4 -10 -5 -21 -1 -24 10 -10 18 4 13 24 -4 17 -4 17 -12
0z"/>
<path d="M4200 2699 c0 -5 5 -7 10 -4 6 3 10 8 10 11 0 2 -4 4 -10 4 -5 0 -10
-5 -10 -11z"/>
<path d="M3350 2666 c0 -9 5 -16 10 -16 6 0 10 4 10 9 0 6 -4 13 -10 16 -5 3
-10 -1 -10 -9z"/>
<path d="M4216 2645 c4 -8 10 -12 15 -9 14 8 10 24 -6 24 -9 0 -12 -6 -9 -15z"/>
<path d="M3760 2640 c0 -5 5 -10 11 -10 5 0 7 5 4 10 -3 6 -8 10 -11 10 -2 0
-4 -4 -4 -10z"/>
<path d="M3310 2620 c0 -5 5 -10 10 -10 6 0 10 5 10 10 0 6 -4 10 -10 10 -5 0
-10 -4 -10 -10z"/>
<path d="M3380 2615 c0 -8 -6 -15 -14 -15 -9 0 -17 -25 -26 -77 -17 -102 -26
-124 -45 -117 -12 5 -15 -2 -15 -34 0 -23 5 -44 10 -47 14 -8 13 -195 -1 -195
-5 0 -21 24 -34 53 -24 55 -89 137 -108 137 -6 0 0 -11 13 -25 13 -14 20 -28
17 -32 -4 -3 -2 -12 4 -20 18 -21 -9 -16 -38 7 -36 28 -73 25 -106 -8 -15 -15
-55 -55 -89 -89 -65 -65 -78 -73 -78 -48 0 8 -4 15 -10 15 -5 0 -10 -7 -10
-16 0 -9 -7 -37 -15 -63 -8 -25 -20 -67 -26 -93 -6 -26 -17 -49 -25 -52 -11
-4 -13 11 -11 76 1 57 -2 82 -10 85 -8 3 -13 -4 -13 -19 -1 -51 -80 -238 -101
-238 -4 0 -3 19 2 41 7 29 6 45 -2 55 -7 9 -8 14 -1 14 6 0 12 -6 15 -12 3 -9
7 -8 12 4 4 9 2 23 -4 30 -7 7 -18 22 -26 33 -14 19 -14 19 -15 -7 0 -15 -4
-30 -10 -33 -5 -3 -10 -15 -10 -27 0 -43 -35 -171 -105 -383 -40 -121 -77
-231 -83 -245 -6 -14 -15 -52 -22 -85 -7 -33 -18 -76 -25 -95 -19 -49 -52
-159 -60 -200 -4 -19 -15 -48 -24 -65 -9 -16 -25 -59 -35 -95 -10 -36 -27 -92
-37 -125 -17 -54 -41 -231 -39 -280 1 -11 4 -89 6 -172 l5 -153 1081 0 1080 0
-4 128 c-4 101 -10 139 -28 187 -13 33 -29 67 -35 75 -7 8 -25 49 -40 90 -22
57 -42 89 -83 133 -56 58 -179 137 -262 168 -120 44 -170 59 -203 59 -17 0
-27 5 -27 15 0 18 -5 18 72 0 108 -26 140 -38 241 -87 78 -38 114 -64 182
-129 47 -45 85 -88 85 -95 0 -8 5 -14 10 -14 6 0 20 -21 33 -47 12 -27 28 -52
35 -56 6 -4 12 -14 12 -20 0 -7 16 -51 35 -97 19 -46 38 -106 41 -132 4 -27
11 -51 15 -54 5 -3 9 -32 9 -65 l0 -59 365 0 c285 0 365 3 365 13 0 6 -7 35
-16 62 -9 28 -19 57 -21 65 -4 12 -7 11 -13 -5 -8 -18 -9 -18 -9 5 -1 14 -15
50 -33 80 -17 30 -39 69 -48 87 -9 17 -27 44 -39 60 -31 39 -91 135 -91 146 0
5 -9 22 -21 38 -11 16 -16 29 -10 29 5 0 13 -4 16 -10 3 -5 11 -10 17 -10 9 0
-17 33 -93 117 -29 33 -37 53 -20 53 14 0 153 -168 186 -225 16 -28 51 -80 77
-117 26 -37 54 -82 63 -100 8 -18 33 -62 56 -98 66 -103 89 -147 89 -169 0
-13 7 -21 16 -21 14 0 15 7 10 41 -4 23 -16 53 -26 67 -24 30 -25 40 -3 64 18
20 4 25 -15 6 -9 -9 -12 -9 -13 3 -1 7 -1 17 0 21 0 4 -10 24 -24 44 -14 21
-28 54 -31 76 -4 21 -12 38 -18 38 -6 0 -12 14 -13 30 -2 34 -62 190 -100 260
-62 118 -83 153 -97 169 -9 10 -16 21 -16 26 0 14 -71 115 -81 115 -5 0 -9 11
-9 25 0 29 -48 77 -118 117 -26 15 -50 28 -53 28 -6 0 37 -144 52 -172 5 -10
9 -27 9 -38 0 -12 9 -39 19 -60 12 -25 15 -42 9 -46 -15 -9 -23 5 -43 76 -10
36 -21 70 -24 75 -3 6 -11 28 -17 50 -15 53 -37 109 -46 115 -3 3 -15 28 -26
57 -21 56 -86 140 -115 149 -13 4 -17 12 -14 26 6 20 5 19 -18 -2 -12 -12 -25
-33 -28 -48 -6 -28 -41 -72 -57 -72 -9 0 -69 97 -83 133 -3 9 -11 17 -17 17
-5 0 -10 5 -10 11 0 6 -9 22 -20 36 -11 14 -20 38 -20 53 0 15 -7 33 -15 40
-17 14 -20 40 -5 40 5 0 12 11 16 25 13 52 29 48 69 -15 35 -56 65 -91 65 -76
0 4 -18 35 -40 69 -23 34 -45 78 -51 97 -12 42 -6 267 10 360 7 36 14 85 18
110 3 24 13 50 22 57 14 11 8 20 -49 73 -82 76 -86 80 -166 168 -37 39 -72 72
-77 72 -6 0 -6 -5 0 -12 5 -7 18 -42 27 -78 10 -36 29 -96 43 -135 28 -78 32
-95 40 -180 l6 -60 -26 31 c-33 39 -98 149 -137 231 -35 73 -100 177 -106 170
-3 -2 5 -20 16 -40 14 -23 17 -38 10 -42 -16 -10 -12 -25 5 -19 18 7 19 0 3
-26 -11 -17 -10 -22 1 -29 9 -6 4 -8 -15 -8 -16 0 -23 2 -16 4 6 3 12 9 12 14
0 19 -55 79 -72 79 -10 0 -21 13 -28 34 -6 18 -28 47 -50 65 -22 18 -40 38
-40 46 0 8 -8 20 -18 27 -10 7 -21 21 -25 31 -8 20 -27 14 -27 -9 0 -21 -18
-17 -25 6 -19 59 -25 0 -25 -231 0 -228 -1 -250 -17 -247 -11 2 -20 22 -29 63
-7 33 -26 95 -44 138 -17 43 -38 108 -46 145 -9 37 -20 77 -25 90 -5 13 -9 32
-9 42 0 11 -4 20 -10 20 -5 0 -10 -7 -10 -15z m-150 -396 c0 -5 -4 -9 -10 -9
-5 0 -10 7 -10 16 0 8 5 12 10 9 6 -3 10 -10 10 -16z m660 -207 c0 -13 -3 -12
-15 4 -19 25 -19 40 0 24 8 -7 15 -20 15 -28z m40 -57 c0 -13 16 -44 35 -69
19 -25 43 -63 55 -85 11 -23 25 -41 30 -41 15 0 72 -89 64 -101 -4 -7 -13 -2
-23 13 -9 14 -34 43 -56 67 -22 23 -56 74 -76 112 -20 39 -45 79 -54 89 -15
16 -15 22 -5 35 16 19 30 10 30 -20z m50 -15 c0 -5 -5 -10 -11 -10 -5 0 -7 5
-4 10 3 6 8 10 11 10 2 0 4 -4 4 -10z m260 -272 c0 -5 -4 -8 -10 -8 -5 0 -10
10 -10 23 0 18 2 19 10 7 5 -8 10 -18 10 -22z m-20 -38 c0 -5 -4 -10 -10 -10
-5 0 -10 5 -10 10 0 6 5 10 10 10 6 0 10 -4 10 -10z m423 -653 c-3 -5 -10 -4
-15 1 -6 6 -7 16 -3 22 6 9 9 9 16 -1 4 -7 5 -17 2 -22z m22 -27 c3 -5 -1 -10
-10 -10 -9 0 -13 5 -10 10 3 6 8 10 10 10 2 0 7 -4 10 -10z m-550 -318 c-6 -7
-35 18 -35 31 0 5 9 2 20 -8 11 -10 18 -20 15 -23z"/>
<path d="M3840 2500 c0 -5 5 -10 10 -10 6 0 10 5 10 10 0 6 -4 10 -10 10 -5 0
-10 -4 -10 -10z"/>
<path d="M3001 2483 c10 -2 19 -13 22 -24 5 -19 37 -28 37 -10 0 14 -42 41
-60 40 -12 -1 -12 -2 1 -6z"/>
<path d="M2970 2435 c0 -14 5 -25 10 -25 6 0 10 11 10 25 0 14 -4 25 -10 25
-5 0 -10 -11 -10 -25z"/>
<path d="M3070 2402 c0 -4 9 -13 20 -20 22 -13 27 -3 8 16 -14 14 -28 16 -28
4z"/>
<path d="M2955 2380 c3 -5 8 -10 11 -10 2 0 4 5 4 10 0 6 -5 10 -11 10 -5 0
-7 -4 -4 -10z"/>
<path d="M3005 2360 c3 -5 8 -10 11 -10 2 0 4 5 4 10 0 6 -5 10 -11 10 -5 0
-7 -4 -4 -10z"/>
<path d="M2914 2267 c-18 -50 -35 -100 -40 -111 -5 -14 -3 -18 7 -14 19 6 89
218 72 218 -5 0 -22 -42 -39 -93z"/>
<path d="M3025 2330 c3 -5 8 -10 11 -10 2 0 4 5 4 10 0 6 -5 10 -11 10 -5 0
-7 -4 -4 -10z"/>
<path d="M2710 2255 c0 -8 5 -15 10 -15 6 0 10 7 10 15 0 8 -4 15 -10 15 -5 0
-10 -7 -10 -15z"/>
<path d="M2970 2250 c0 -5 5 -10 11 -10 5 0 7 5 4 10 -3 6 -8 10 -11 10 -2 0
-4 -4 -4 -10z"/>
<path d="M2700 2211 c0 -5 7 -14 15 -21 13 -10 15 -9 15 9 0 12 -6 21 -15 21
-8 0 -15 -4 -15 -9z"/>
<path d="M2941 2184 c0 -11 3 -14 6 -6 3 7 2 16 -1 19 -3 4 -6 -2 -5 -13z"/>
<path d="M2692 2037 c-13 -36 -17 -105 -5 -93 8 7 32 92 33 114 0 24 -16 11
-28 -21z"/>
</g>
</svg>
